<svg xmlns="http://www.w3.org/2000/svg" width="24" height="24" viewBox="0 0 24 24" fill="none"
     stroke="#3525CD" stroke-width="1.6" stroke-linecap="round" stroke-linejoin="round">
  <circle cx="12" cy="12" r="3.2"/>
  <path d="M19.4 14.3a1.5 1.5 0 00.3 1.65l.06.06a1.8 1.8 0 11-2.55 2.55l-.06-.06a1.5 1.5 0 00-1.65-.3 1.5 1.5 0 00-.9 1.37V20a1.8 1.8 0 11-3.6 0v-.1a1.5 1.5 0 00-.98-1.37 1.5 1.5 0 00-1.65.3l-.06.06a1.8 1.8 0 11-2.55-2.55l.06-.06a1.5 1.5 0 00.3-1.65 1.5 1.5 0 00-1.37-.9H4a1.8 1.8 0 110-3.6h.1a1.5 1.5 0 001.37-.98 1.5 1.5 0 00-.3-1.65l-.06-.06a1.8 1.8 0 112.55-2.55l.06.06a1.5 1.5 0 001.65.3h.07a1.5 1.5 0 00.9-1.37V4a1.8 1.8 0 113.6 0v.1a1.5 1.5 0 00.9 1.37 1.5 1.5 0 001.65-.3l.06-.06a1.8 1.8 0 112.55 2.55l-.06.06a1.5 1.5 0 00-.3 1.65v.07a1.5 1.5 0 001.37.9H20a1.8 1.8 0 110 3.6h-.1a1.5 1.5 0 00-1.37.9z"/>
</svg>
